<mxfile host="app.diagrams.net" modified="2021-09-22T06:37:21.743Z" agent="5.0 (Windows NT 10.0; Win64; x64) AppleWebKit/537.36 (KHTML, like Gecko) Chrome/93.0.4577.82 Safari/537.36" etag="C89E6xdrjU9x0G52P0b1" version="15.2.9" type="github">
  <diagram id="2_7LosgEdVpiRMIQfIVS" name="Page-1">
    <mxGraphModel dx="2556" dy="1478" grid="0" gridSize="10" guides="1" tooltips="1" connect="1" arrows="1" fold="1" page="0" pageScale="1" pageWidth="827" pageHeight="1169" math="0" shadow="0">
      <root>
        <mxCell id="0" />
        <mxCell id="1" parent="0" />
        <mxCell id="CVqee3alxtFutnKoP7we-18" value="" style="shape=flexArrow;endArrow=classic;html=1;fillColor=#FF0000;gradientColor=#00FF00;entryX=0.227;entryY=0.031;entryDx=0;entryDy=0;entryPerimeter=0;exitX=0.906;exitY=0.961;exitDx=0;exitDy=0;exitPerimeter=0;" parent="1" source="CVqee3alxtFutnKoP7we-11" target="CVqee3alxtFutnKoP7we-1" edge="1">
          <mxGeometry width="50" height="50" relative="1" as="geometry">
            <mxPoint x="355" y="125" as="sourcePoint" />
            <mxPoint x="544" y="204" as="targetPoint" />
          </mxGeometry>
        </mxCell>
        <mxCell id="CVqee3alxtFutnKoP7we-19" value="&lt;b&gt;&lt;font style=&quot;font-size: 14px&quot;&gt;Access Request Validate / Reject&lt;/font&gt;&lt;/b&gt;" style="edgeLabel;html=1;align=center;verticalAlign=middle;resizable=0;points=[];" parent="CVqee3alxtFutnKoP7we-18" vertex="1" connectable="0">
          <mxGeometry x="-0.3468" y="2" relative="1" as="geometry">
            <mxPoint as="offset" />
          </mxGeometry>
        </mxCell>
        <mxCell id="CVqee3alxtFutnKoP7we-1" value="&lt;b&gt;&lt;font style=&quot;font-size: 19px&quot;&gt;&lt;br&gt;Public&lt;br&gt;Certificate&lt;br&gt;POOL&lt;/font&gt;&lt;/b&gt;" style="strokeWidth=2;html=1;shape=mxgraph.flowchart.database;whiteSpace=wrap;fillColor=#dae8fc;strokeColor=#6c8ebf;" parent="1" vertex="1">
          <mxGeometry x="452" y="210" width="188" height="153" as="geometry" />
        </mxCell>
        <mxCell id="CVqee3alxtFutnKoP7we-3" value="&lt;b&gt;Validated Providers&lt;/b&gt;" style="outlineConnect=0;fontColor=#232F3E;gradientColor=none;fillColor=#232F3E;strokeColor=none;dashed=0;verticalLabelPosition=bottom;verticalAlign=top;align=center;html=1;fontSize=12;fontStyle=0;aspect=fixed;pointerEvents=1;shape=mxgraph.aws4.user;" parent="1" vertex="1">
          <mxGeometry x="70" y="247.5" width="78" height="78" as="geometry" />
        </mxCell>
        <mxCell id="CVqee3alxtFutnKoP7we-4" value="&lt;font style=&quot;font-size: 14px&quot;&gt;&lt;b&gt;Anyone&lt;/b&gt;&lt;/font&gt;" style="outlineConnect=0;fontColor=#232F3E;gradientColor=none;fillColor=#232F3E;strokeColor=none;dashed=0;verticalLabelPosition=bottom;verticalAlign=top;align=center;html=1;fontSize=12;fontStyle=0;aspect=fixed;pointerEvents=1;shape=mxgraph.aws4.user;" parent="1" vertex="1">
          <mxGeometry x="892" y="239" width="78" height="78" as="geometry" />
        </mxCell>
        <mxCell id="CVqee3alxtFutnKoP7we-8" value="" style="aspect=fixed;html=1;points=[];align=center;image;fontSize=12;image=img/lib/mscae/Certificate.svg;fillColor=none;" parent="1" vertex="1">
          <mxGeometry x="379" y="284" width="50" height="42" as="geometry" />
        </mxCell>
        <mxCell id="CVqee3alxtFutnKoP7we-10" value="&lt;b&gt;Public Pool Owners&lt;/b&gt;" style="outlineConnect=0;dashed=0;verticalLabelPosition=bottom;verticalAlign=top;align=center;html=1;fontSize=12;fontStyle=0;aspect=fixed;pointerEvents=1;shape=mxgraph.aws4.user;strokeColor=#36393d;fillColor=#FF0000;" parent="1" vertex="1">
          <mxGeometry x="271" y="38" width="78" height="78" as="geometry" />
        </mxCell>
        <mxCell id="CVqee3alxtFutnKoP7we-11" value="" style="shape=image;html=1;verticalAlign=top;verticalLabelPosition=bottom;labelBackgroundColor=#ffffff;imageAspect=0;aspect=fixed;image=https://cdn0.iconfinder.com/data/icons/small-n-flat/24/678136-shield-warning-128.png;strokeColor=#000000;fillColor=#000000;" parent="1" vertex="1">
          <mxGeometry x="311" y="54" width="66" height="66" as="geometry" />
        </mxCell>
        <mxCell id="CVqee3alxtFutnKoP7we-12" value="" style="shape=flexArrow;endArrow=classic;html=1;" parent="1" edge="1">
          <mxGeometry width="50" height="50" relative="1" as="geometry">
            <mxPoint x="164" y="303" as="sourcePoint" />
            <mxPoint x="375" y="303" as="targetPoint" />
          </mxGeometry>
        </mxCell>
        <mxCell id="CVqee3alxtFutnKoP7we-23" value="&lt;b&gt;&lt;font style=&quot;font-size: 15px&quot;&gt;New Certificate&lt;/font&gt;&lt;/b&gt;" style="edgeLabel;html=1;align=center;verticalAlign=middle;resizable=0;points=[];" parent="CVqee3alxtFutnKoP7we-12" vertex="1" connectable="0">
          <mxGeometry x="-0.1456" y="-1" relative="1" as="geometry">
            <mxPoint as="offset" />
          </mxGeometry>
        </mxCell>
        <mxCell id="CVqee3alxtFutnKoP7we-5" value="" style="aspect=fixed;html=1;points=[];align=center;image;fontSize=12;image=img/lib/mscae/Key.svg;fillColor=none;" parent="1" vertex="1">
          <mxGeometry x="127" y="275.5" width="31" height="50" as="geometry" />
        </mxCell>
        <mxCell id="CVqee3alxtFutnKoP7we-13" value="&lt;b&gt;&lt;font style=&quot;font-size: 14px&quot;&gt;New Providers&lt;/font&gt;&lt;/b&gt;" style="outlineConnect=0;fontColor=#232F3E;gradientColor=none;fillColor=#232F3E;strokeColor=none;dashed=0;verticalLabelPosition=bottom;verticalAlign=top;align=center;html=1;fontSize=12;fontStyle=0;aspect=fixed;pointerEvents=1;shape=mxgraph.aws4.user;" parent="1" vertex="1">
          <mxGeometry x="721" y="27" width="78" height="78" as="geometry" />
        </mxCell>
        <mxCell id="CVqee3alxtFutnKoP7we-14" value="" style="aspect=fixed;html=1;points=[];align=center;image;fontSize=12;image=img/lib/mscae/Key.svg;fillColor=none;" parent="1" vertex="1">
          <mxGeometry x="778" y="55" width="31" height="50" as="geometry" />
        </mxCell>
        <mxCell id="CVqee3alxtFutnKoP7we-16" value="" style="shape=flexArrow;endArrow=classic;html=1;dashed=1;entryX=0.758;entryY=0.007;entryDx=0;entryDy=0;entryPerimeter=0;" parent="1" source="CVqee3alxtFutnKoP7we-13" target="CVqee3alxtFutnKoP7we-1" edge="1">
          <mxGeometry width="50" height="50" relative="1" as="geometry">
            <mxPoint x="927" y="-37" as="sourcePoint" />
            <mxPoint x="563" y="203" as="targetPoint" />
          </mxGeometry>
        </mxCell>
        <mxCell id="CVqee3alxtFutnKoP7we-17" value="&lt;b&gt;&lt;font style=&quot;font-size: 15px&quot;&gt;Access Request&lt;/font&gt;&lt;/b&gt;" style="edgeLabel;html=1;align=center;verticalAlign=middle;resizable=0;points=[];" parent="CVqee3alxtFutnKoP7we-16" vertex="1" connectable="0">
          <mxGeometry x="-0.2798" y="1" relative="1" as="geometry">
            <mxPoint as="offset" />
          </mxGeometry>
        </mxCell>
        <mxCell id="CVqee3alxtFutnKoP7we-25" value="&lt;font size=&quot;1&quot;&gt;&lt;b style=&quot;font-size: 27px&quot;&gt;1&lt;/b&gt;&lt;/font&gt;" style="ellipse;whiteSpace=wrap;html=1;aspect=fixed;strokeColor=#000000;fillColor=none;" parent="1" vertex="1">
          <mxGeometry x="659" y="168" width="33" height="33" as="geometry" />
        </mxCell>
        <mxCell id="CVqee3alxtFutnKoP7we-26" value="&lt;font size=&quot;1&quot;&gt;&lt;b style=&quot;font-size: 27px&quot;&gt;2&lt;/b&gt;&lt;/font&gt;" style="ellipse;whiteSpace=wrap;html=1;aspect=fixed;strokeColor=#000000;fillColor=none;" parent="1" vertex="1">
          <mxGeometry x="387.5" y="173" width="33" height="33" as="geometry" />
        </mxCell>
        <mxCell id="CVqee3alxtFutnKoP7we-27" value="&lt;font size=&quot;1&quot;&gt;&lt;b style=&quot;font-size: 27px&quot;&gt;3&lt;/b&gt;&lt;/font&gt;" style="ellipse;whiteSpace=wrap;html=1;aspect=fixed;strokeColor=#000000;fillColor=none;" parent="1" vertex="1">
          <mxGeometry x="268" y="320" width="33" height="33" as="geometry" />
        </mxCell>
        <mxCell id="CVqee3alxtFutnKoP7we-28" value="" style="html=1;verticalLabelPosition=bottom;align=center;labelBackgroundColor=#ffffff;verticalAlign=top;strokeWidth=2;strokeColor=#0080F0;shadow=0;dashed=0;shape=mxgraph.ios7.icons.eye;fillColor=none;" parent="1" vertex="1">
          <mxGeometry x="644" y="281" width="51" height="28" as="geometry" />
        </mxCell>
        <mxCell id="CVqee3alxtFutnKoP7we-29" value="" style="shape=flexArrow;endArrow=classic;html=1;" parent="1" edge="1">
          <mxGeometry width="50" height="50" relative="1" as="geometry">
            <mxPoint x="885" y="297" as="sourcePoint" />
            <mxPoint x="696" y="297" as="targetPoint" />
          </mxGeometry>
        </mxCell>
        <mxCell id="CVqee3alxtFutnKoP7we-30" value="&lt;b&gt;&lt;font style=&quot;font-size: 15px&quot;&gt;Check Certificate&lt;/font&gt;&lt;/b&gt;" style="edgeLabel;html=1;align=center;verticalAlign=middle;resizable=0;points=[];" parent="CVqee3alxtFutnKoP7we-29" vertex="1" connectable="0">
          <mxGeometry x="-0.1456" y="-1" relative="1" as="geometry">
            <mxPoint as="offset" />
          </mxGeometry>
        </mxCell>
        <mxCell id="CVqee3alxtFutnKoP7we-32" value="&lt;font size=&quot;1&quot;&gt;&lt;b style=&quot;font-size: 27px&quot;&gt;4&lt;/b&gt;&lt;/font&gt;" style="ellipse;whiteSpace=wrap;html=1;aspect=fixed;strokeColor=#000000;fillColor=none;" parent="1" vertex="1">
          <mxGeometry x="789" y="309" width="33" height="33" as="geometry" />
        </mxCell>
        <mxCell id="CVqee3alxtFutnKoP7we-56" value="" style="shape=image;html=1;verticalAlign=top;verticalLabelPosition=bottom;labelBackgroundColor=#ffffff;imageAspect=0;aspect=fixed;image=https://cdn4.iconfinder.com/data/icons/cryptocoins/227/ETH-alt-128.png;strokeColor=#000000;fillColor=#FF0000;" parent="1" vertex="1">
          <mxGeometry x="644" y="97" width="35" height="35" as="geometry" />
        </mxCell>
        <mxCell id="CVqee3alxtFutnKoP7we-79" value="" style="shape=image;html=1;verticalAlign=top;verticalLabelPosition=bottom;labelBackgroundColor=#ffffff;imageAspect=0;aspect=fixed;image=https://cdn4.iconfinder.com/data/icons/cryptocoins/227/ETH-alt-128.png;strokeColor=#000000;fillColor=#FF0000;" parent="1" vertex="1">
          <mxGeometry x="271" y="254" width="35" height="35" as="geometry" />
        </mxCell>
        <mxCell id="CVqee3alxtFutnKoP7we-80" value="&lt;b&gt;&lt;font style=&quot;font-size: 19px&quot;&gt;&lt;br&gt;Private&lt;br&gt;Certificate&lt;br&gt;POOL&lt;/font&gt;&lt;/b&gt;" style="strokeWidth=2;html=1;shape=mxgraph.flowchart.database;whiteSpace=wrap;fillColor=#cdeb8b;strokeColor=#36393d;" parent="1" vertex="1">
          <mxGeometry x="465" y="794" width="188" height="153" as="geometry" />
        </mxCell>
        <mxCell id="CVqee3alxtFutnKoP7we-81" value="&lt;b&gt;Validated Providers&lt;/b&gt;" style="outlineConnect=0;fontColor=#232F3E;gradientColor=none;fillColor=#232F3E;strokeColor=none;dashed=0;verticalLabelPosition=bottom;verticalAlign=top;align=center;html=1;fontSize=12;fontStyle=0;aspect=fixed;pointerEvents=1;shape=mxgraph.aws4.user;" parent="1" vertex="1">
          <mxGeometry x="83" y="831.5" width="78" height="78" as="geometry" />
        </mxCell>
        <mxCell id="CVqee3alxtFutnKoP7we-82" value="&lt;font style=&quot;font-size: 14px&quot;&gt;&lt;b&gt;Anyone&lt;/b&gt;&lt;/font&gt;" style="outlineConnect=0;fontColor=#232F3E;gradientColor=none;fillColor=#232F3E;strokeColor=none;dashed=0;verticalLabelPosition=bottom;verticalAlign=top;align=center;html=1;fontSize=12;fontStyle=0;aspect=fixed;pointerEvents=1;shape=mxgraph.aws4.user;" parent="1" vertex="1">
          <mxGeometry x="905" y="823" width="78" height="78" as="geometry" />
        </mxCell>
        <mxCell id="CVqee3alxtFutnKoP7we-83" value="" style="aspect=fixed;html=1;points=[];align=center;image;fontSize=12;image=img/lib/mscae/Certificate.svg;fillColor=none;" parent="1" vertex="1">
          <mxGeometry x="392" y="868" width="50" height="42" as="geometry" />
        </mxCell>
        <mxCell id="CVqee3alxtFutnKoP7we-84" value="&lt;b&gt;Private Pool Owners&lt;/b&gt;" style="outlineConnect=0;dashed=0;verticalLabelPosition=bottom;verticalAlign=top;align=center;html=1;fontSize=12;fontStyle=0;aspect=fixed;pointerEvents=1;shape=mxgraph.aws4.user;strokeColor=#36393d;fillColor=#FF0000;" parent="1" vertex="1">
          <mxGeometry x="284" y="622" width="78" height="78" as="geometry" />
        </mxCell>
        <mxCell id="CVqee3alxtFutnKoP7we-85" value="" style="shape=image;html=1;verticalAlign=top;verticalLabelPosition=bottom;labelBackgroundColor=#ffffff;imageAspect=0;aspect=fixed;image=https://cdn0.iconfinder.com/data/icons/small-n-flat/24/678136-shield-warning-128.png;strokeColor=#000000;fillColor=#000000;" parent="1" vertex="1">
          <mxGeometry x="324" y="638" width="66" height="66" as="geometry" />
        </mxCell>
        <mxCell id="CVqee3alxtFutnKoP7we-86" value="" style="shape=flexArrow;endArrow=classic;html=1;" parent="1" edge="1">
          <mxGeometry width="50" height="50" relative="1" as="geometry">
            <mxPoint x="177" y="887" as="sourcePoint" />
            <mxPoint x="388" y="887" as="targetPoint" />
          </mxGeometry>
        </mxCell>
        <mxCell id="CVqee3alxtFutnKoP7we-87" value="&lt;b&gt;&lt;font style=&quot;font-size: 15px&quot;&gt;New Certificate&lt;/font&gt;&lt;/b&gt;" style="edgeLabel;html=1;align=center;verticalAlign=middle;resizable=0;points=[];" parent="CVqee3alxtFutnKoP7we-86" vertex="1" connectable="0">
          <mxGeometry x="-0.1456" y="-1" relative="1" as="geometry">
            <mxPoint as="offset" />
          </mxGeometry>
        </mxCell>
        <mxCell id="CVqee3alxtFutnKoP7we-88" value="" style="aspect=fixed;html=1;points=[];align=center;image;fontSize=12;image=img/lib/mscae/Key.svg;fillColor=none;" parent="1" vertex="1">
          <mxGeometry x="140" y="859.5" width="31" height="50" as="geometry" />
        </mxCell>
        <mxCell id="CVqee3alxtFutnKoP7we-89" value="&lt;b style=&quot;font-size: 14px&quot;&gt;Anyone&lt;/b&gt;" style="outlineConnect=0;fontColor=#232F3E;gradientColor=none;fillColor=#232F3E;strokeColor=none;dashed=0;verticalLabelPosition=bottom;verticalAlign=top;align=center;html=1;fontSize=12;fontStyle=0;aspect=fixed;pointerEvents=1;shape=mxgraph.aws4.user;" parent="1" vertex="1">
          <mxGeometry x="771" y="587" width="78" height="78" as="geometry" />
        </mxCell>
        <mxCell id="CVqee3alxtFutnKoP7we-91" value="" style="shape=flexArrow;endArrow=classic;html=1;dashed=1;entryX=0.758;entryY=0.007;entryDx=0;entryDy=0;entryPerimeter=0;" parent="1" source="CVqee3alxtFutnKoP7we-89" target="CVqee3alxtFutnKoP7we-80" edge="1">
          <mxGeometry width="50" height="50" relative="1" as="geometry">
            <mxPoint x="940" y="547" as="sourcePoint" />
            <mxPoint x="576" y="787" as="targetPoint" />
          </mxGeometry>
        </mxCell>
        <mxCell id="CVqee3alxtFutnKoP7we-92" value="&lt;b&gt;&lt;font style=&quot;font-size: 15px&quot;&gt;New Private Pool Creation&lt;br&gt;(Private Owners list)&lt;br&gt;&lt;/font&gt;&lt;/b&gt;" style="edgeLabel;html=1;align=center;verticalAlign=middle;resizable=0;points=[];" parent="CVqee3alxtFutnKoP7we-91" vertex="1" connectable="0">
          <mxGeometry x="-0.2798" y="1" relative="1" as="geometry">
            <mxPoint as="offset" />
          </mxGeometry>
        </mxCell>
        <mxCell id="CVqee3alxtFutnKoP7we-93" value="" style="shape=flexArrow;endArrow=classic;html=1;entryX=0.227;entryY=0.031;entryDx=0;entryDy=0;entryPerimeter=0;fillColor=#00FF00;" parent="1" target="CVqee3alxtFutnKoP7we-80" edge="1">
          <mxGeometry width="50" height="50" relative="1" as="geometry">
            <mxPoint x="377" y="692" as="sourcePoint" />
            <mxPoint x="557" y="788" as="targetPoint" />
          </mxGeometry>
        </mxCell>
        <mxCell id="CVqee3alxtFutnKoP7we-94" value="&lt;b&gt;&lt;font style=&quot;font-size: 14px&quot;&gt;Add Providers&lt;/font&gt;&lt;/b&gt;" style="edgeLabel;html=1;align=center;verticalAlign=middle;resizable=0;points=[];" parent="CVqee3alxtFutnKoP7we-93" vertex="1" connectable="0">
          <mxGeometry x="-0.3468" y="2" relative="1" as="geometry">
            <mxPoint as="offset" />
          </mxGeometry>
        </mxCell>
        <mxCell id="CVqee3alxtFutnKoP7we-95" value="&lt;font size=&quot;1&quot;&gt;&lt;b style=&quot;font-size: 27px&quot;&gt;1&lt;/b&gt;&lt;/font&gt;" style="ellipse;whiteSpace=wrap;html=1;aspect=fixed;strokeColor=#000000;fillColor=none;" parent="1" vertex="1">
          <mxGeometry x="672" y="752" width="33" height="33" as="geometry" />
        </mxCell>
        <mxCell id="CVqee3alxtFutnKoP7we-96" value="&lt;font size=&quot;1&quot;&gt;&lt;b style=&quot;font-size: 27px&quot;&gt;2&lt;/b&gt;&lt;/font&gt;" style="ellipse;whiteSpace=wrap;html=1;aspect=fixed;strokeColor=#000000;fillColor=none;" parent="1" vertex="1">
          <mxGeometry x="400.5" y="757" width="33" height="33" as="geometry" />
        </mxCell>
        <mxCell id="CVqee3alxtFutnKoP7we-97" value="&lt;font size=&quot;1&quot;&gt;&lt;b style=&quot;font-size: 27px&quot;&gt;3&lt;/b&gt;&lt;/font&gt;" style="ellipse;whiteSpace=wrap;html=1;aspect=fixed;strokeColor=#000000;fillColor=none;" parent="1" vertex="1">
          <mxGeometry x="281" y="904" width="33" height="33" as="geometry" />
        </mxCell>
        <mxCell id="CVqee3alxtFutnKoP7we-98" value="" style="html=1;verticalLabelPosition=bottom;align=center;labelBackgroundColor=#ffffff;verticalAlign=top;strokeWidth=2;strokeColor=#0080F0;shadow=0;dashed=0;shape=mxgraph.ios7.icons.eye;fillColor=none;" parent="1" vertex="1">
          <mxGeometry x="657" y="865" width="51" height="28" as="geometry" />
        </mxCell>
        <mxCell id="CVqee3alxtFutnKoP7we-99" value="" style="shape=flexArrow;endArrow=classic;html=1;" parent="1" edge="1">
          <mxGeometry width="50" height="50" relative="1" as="geometry">
            <mxPoint x="898" y="881" as="sourcePoint" />
            <mxPoint x="709" y="881" as="targetPoint" />
          </mxGeometry>
        </mxCell>
        <mxCell id="CVqee3alxtFutnKoP7we-100" value="&lt;b&gt;&lt;font style=&quot;font-size: 15px&quot;&gt;Check Certificate&lt;/font&gt;&lt;/b&gt;" style="edgeLabel;html=1;align=center;verticalAlign=middle;resizable=0;points=[];" parent="CVqee3alxtFutnKoP7we-99" vertex="1" connectable="0">
          <mxGeometry x="-0.1456" y="-1" relative="1" as="geometry">
            <mxPoint as="offset" />
          </mxGeometry>
        </mxCell>
        <mxCell id="CVqee3alxtFutnKoP7we-101" value="&lt;font size=&quot;1&quot;&gt;&lt;b style=&quot;font-size: 27px&quot;&gt;4&lt;/b&gt;&lt;/font&gt;" style="ellipse;whiteSpace=wrap;html=1;aspect=fixed;strokeColor=#000000;fillColor=none;" parent="1" vertex="1">
          <mxGeometry x="802" y="893" width="33" height="33" as="geometry" />
        </mxCell>
        <mxCell id="CVqee3alxtFutnKoP7we-102" value="" style="shape=image;html=1;verticalAlign=top;verticalLabelPosition=bottom;labelBackgroundColor=#ffffff;imageAspect=0;aspect=fixed;image=https://cdn4.iconfinder.com/data/icons/cryptocoins/227/ETH-alt-128.png;strokeColor=#000000;fillColor=#FF0000;" parent="1" vertex="1">
          <mxGeometry x="694" y="650" width="35" height="35" as="geometry" />
        </mxCell>
        <mxCell id="CVqee3alxtFutnKoP7we-127" value="&lt;font style=&quot;font-size: 20px&quot;&gt;&lt;b&gt;MultiSig Provider&lt;/b&gt;&lt;/font&gt;" style="shape=image;html=1;verticalAlign=top;verticalLabelPosition=bottom;labelBackgroundColor=#ffffff;imageAspect=0;aspect=fixed;image=https://cdn2.iconfinder.com/data/icons/pinpoint-interface/48/files-128.png;strokeColor=#000000;fillColor=#FF0000;" parent="1" vertex="1">
          <mxGeometry x="539" y="1399" width="186" height="186" as="geometry" />
        </mxCell>
        <mxCell id="CVqee3alxtFutnKoP7we-128" value="&lt;b style=&quot;font-size: 14px&quot;&gt;Anyone&lt;/b&gt;" style="outlineConnect=0;fontColor=#232F3E;gradientColor=none;fillColor=#232F3E;strokeColor=none;dashed=0;verticalLabelPosition=bottom;verticalAlign=top;align=center;html=1;fontSize=12;fontStyle=0;aspect=fixed;pointerEvents=1;shape=mxgraph.aws4.user;" parent="1" vertex="1">
          <mxGeometry x="208" y="1329" width="78" height="78" as="geometry" />
        </mxCell>
        <mxCell id="CVqee3alxtFutnKoP7we-129" value="" style="shape=flexArrow;endArrow=classic;html=1;dashed=1;entryX=0.055;entryY=0.378;entryDx=0;entryDy=0;entryPerimeter=0;" parent="1" target="CVqee3alxtFutnKoP7we-127" edge="1">
          <mxGeometry width="50" height="50" relative="1" as="geometry">
            <mxPoint x="306" y="1402" as="sourcePoint" />
            <mxPoint x="259.50400000000036" y="1381.508534568584" as="targetPoint" />
          </mxGeometry>
        </mxCell>
        <mxCell id="CVqee3alxtFutnKoP7we-130" value="&lt;b&gt;&lt;font style=&quot;font-size: 15px&quot;&gt;New MultiSig &lt;br&gt;Provider Creation&lt;br&gt;(Owners list)&lt;br&gt;&lt;/font&gt;&lt;/b&gt;" style="edgeLabel;html=1;align=center;verticalAlign=middle;resizable=0;points=[];" parent="CVqee3alxtFutnKoP7we-129" vertex="1" connectable="0">
          <mxGeometry x="-0.2798" y="1" relative="1" as="geometry">
            <mxPoint x="-15" as="offset" />
          </mxGeometry>
        </mxCell>
        <mxCell id="CVqee3alxtFutnKoP7we-134" value="&lt;b&gt;Provider Owners&lt;/b&gt;" style="outlineConnect=0;dashed=0;verticalLabelPosition=bottom;verticalAlign=top;align=center;html=1;fontSize=12;fontStyle=0;aspect=fixed;pointerEvents=1;shape=mxgraph.aws4.user;strokeColor=#36393d;fillColor=#FF0000;" parent="1" vertex="1">
          <mxGeometry x="203" y="1467" width="78" height="78" as="geometry" />
        </mxCell>
        <mxCell id="CVqee3alxtFutnKoP7we-135" value="" style="shape=image;html=1;verticalAlign=top;verticalLabelPosition=bottom;labelBackgroundColor=#ffffff;imageAspect=0;aspect=fixed;image=https://cdn0.iconfinder.com/data/icons/small-n-flat/24/678136-shield-warning-128.png;strokeColor=#000000;fillColor=#000000;" parent="1" vertex="1">
          <mxGeometry x="243" y="1483" width="66" height="66" as="geometry" />
        </mxCell>
        <mxCell id="CVqee3alxtFutnKoP7we-136" value="" style="shape=flexArrow;endArrow=classic;html=1;fillColor=#00FF00;exitX=1;exitY=0.5;exitDx=0;exitDy=0;" parent="1" source="CVqee3alxtFutnKoP7we-135" edge="1">
          <mxGeometry width="50" height="50" relative="1" as="geometry">
            <mxPoint x="274" y="1865" as="sourcePoint" />
            <mxPoint x="550" y="1516" as="targetPoint" />
          </mxGeometry>
        </mxCell>
        <mxCell id="CVqee3alxtFutnKoP7we-137" value="&lt;span style=&quot;font-size: 14px&quot;&gt;&lt;b&gt;Subscribe to Pools&lt;/b&gt;&lt;/span&gt;" style="edgeLabel;html=1;align=center;verticalAlign=middle;resizable=0;points=[];" parent="CVqee3alxtFutnKoP7we-136" vertex="1" connectable="0">
          <mxGeometry x="-0.3468" y="2" relative="1" as="geometry">
            <mxPoint as="offset" />
          </mxGeometry>
        </mxCell>
        <mxCell id="CVqee3alxtFutnKoP7we-139" value="&lt;font size=&quot;1&quot;&gt;&lt;b style=&quot;font-size: 27px&quot;&gt;1&lt;/b&gt;&lt;/font&gt;" style="ellipse;whiteSpace=wrap;html=1;aspect=fixed;strokeColor=#000000;fillColor=none;" parent="1" vertex="1">
          <mxGeometry x="479" y="1407" width="33" height="33" as="geometry" />
        </mxCell>
        <mxCell id="CVqee3alxtFutnKoP7we-140" value="&lt;b&gt;Provider Owners&lt;/b&gt;" style="outlineConnect=0;dashed=0;verticalLabelPosition=bottom;verticalAlign=top;align=center;html=1;fontSize=12;fontStyle=0;aspect=fixed;pointerEvents=1;shape=mxgraph.aws4.user;strokeColor=#36393d;fillColor=#FF0000;" parent="1" vertex="1">
          <mxGeometry x="201" y="1615" width="78" height="78" as="geometry" />
        </mxCell>
        <mxCell id="CVqee3alxtFutnKoP7we-141" value="" style="shape=image;html=1;verticalAlign=top;verticalLabelPosition=bottom;labelBackgroundColor=#ffffff;imageAspect=0;aspect=fixed;image=https://cdn0.iconfinder.com/data/icons/small-n-flat/24/678136-shield-warning-128.png;strokeColor=#000000;fillColor=#000000;" parent="1" vertex="1">
          <mxGeometry x="241" y="1631" width="66" height="66" as="geometry" />
        </mxCell>
        <mxCell id="CVqee3alxtFutnKoP7we-142" value="&lt;font size=&quot;1&quot;&gt;&lt;b style=&quot;font-size: 27px&quot;&gt;2&lt;/b&gt;&lt;/font&gt;" style="ellipse;whiteSpace=wrap;html=1;aspect=fixed;strokeColor=#000000;fillColor=none;" parent="1" vertex="1">
          <mxGeometry x="479" y="1526" width="33" height="33" as="geometry" />
        </mxCell>
        <mxCell id="CVqee3alxtFutnKoP7we-143" value="" style="shape=flexArrow;endArrow=classic;html=1;fillColor=#00FF00;entryX=0;entryY=1;entryDx=0;entryDy=0;gradientColor=#FF0000;" parent="1" target="CVqee3alxtFutnKoP7we-127" edge="1">
          <mxGeometry width="50" height="50" relative="1" as="geometry">
            <mxPoint x="309" y="1673" as="sourcePoint" />
            <mxPoint x="627.0000000000002" y="1739" as="targetPoint" />
          </mxGeometry>
        </mxCell>
        <mxCell id="CVqee3alxtFutnKoP7we-144" value="&lt;span style=&quot;font-size: 14px&quot;&gt;&lt;b&gt;Add / Validate / Reject&lt;br&gt;Certificate deliveries&lt;br&gt;&lt;/b&gt;&lt;/span&gt;" style="edgeLabel;html=1;align=center;verticalAlign=middle;resizable=0;points=[];" parent="CVqee3alxtFutnKoP7we-143" vertex="1" connectable="0">
          <mxGeometry x="-0.3468" y="2" relative="1" as="geometry">
            <mxPoint x="31" y="-11" as="offset" />
          </mxGeometry>
        </mxCell>
        <mxCell id="CVqee3alxtFutnKoP7we-146" value="&lt;font size=&quot;1&quot;&gt;&lt;b style=&quot;font-size: 27px&quot;&gt;3&lt;/b&gt;&lt;/font&gt;" style="ellipse;whiteSpace=wrap;html=1;aspect=fixed;strokeColor=#000000;fillColor=none;" parent="1" vertex="1">
          <mxGeometry x="503" y="1631" width="33" height="33" as="geometry" />
        </mxCell>
        <mxCell id="CVqee3alxtFutnKoP7we-147" value="&lt;b&gt;&lt;font style=&quot;font-size: 19px&quot;&gt;&lt;br&gt;Public&lt;br&gt;Certificate&lt;br&gt;POOL&lt;/font&gt;&lt;/b&gt;" style="strokeWidth=2;html=1;shape=mxgraph.flowchart.database;whiteSpace=wrap;fillColor=#dae8fc;strokeColor=#6c8ebf;" parent="1" vertex="1">
          <mxGeometry x="922" y="1307" width="188" height="153" as="geometry" />
        </mxCell>
        <mxCell id="CVqee3alxtFutnKoP7we-148" value="&lt;b&gt;&lt;font style=&quot;font-size: 19px&quot;&gt;&lt;br&gt;Private&lt;br&gt;Certificate&lt;br&gt;POOL&lt;/font&gt;&lt;/b&gt;" style="strokeWidth=2;html=1;shape=mxgraph.flowchart.database;whiteSpace=wrap;fillColor=#cdeb8b;strokeColor=#36393d;" parent="1" vertex="1">
          <mxGeometry x="922" y="1522" width="188" height="153" as="geometry" />
        </mxCell>
        <mxCell id="CVqee3alxtFutnKoP7we-149" value="" style="shape=flexArrow;endArrow=classic;html=1;exitX=1;exitY=0.5;exitDx=0;exitDy=0;" parent="1" source="CVqee3alxtFutnKoP7we-127" edge="1">
          <mxGeometry width="50" height="50" relative="1" as="geometry">
            <mxPoint x="732" y="1843" as="sourcePoint" />
            <mxPoint x="857" y="1414" as="targetPoint" />
          </mxGeometry>
        </mxCell>
        <mxCell id="CVqee3alxtFutnKoP7we-150" value="&lt;b&gt;&lt;font style=&quot;font-size: 15px&quot;&gt;New Certificate&lt;/font&gt;&lt;/b&gt;" style="edgeLabel;html=1;align=center;verticalAlign=middle;resizable=0;points=[];" parent="CVqee3alxtFutnKoP7we-149" vertex="1" connectable="0">
          <mxGeometry x="-0.1456" y="-1" relative="1" as="geometry">
            <mxPoint as="offset" />
          </mxGeometry>
        </mxCell>
        <mxCell id="CVqee3alxtFutnKoP7we-151" value="" style="aspect=fixed;html=1;points=[];align=center;image;fontSize=12;image=img/lib/mscae/Certificate.svg;fillColor=none;" parent="1" vertex="1">
          <mxGeometry x="869" y="1383" width="50" height="42" as="geometry" />
        </mxCell>
        <mxCell id="CVqee3alxtFutnKoP7we-152" value="" style="aspect=fixed;html=1;points=[];align=center;image;fontSize=12;image=img/lib/mscae/Certificate.svg;fillColor=none;" parent="1" vertex="1">
          <mxGeometry x="864" y="1589" width="50" height="42" as="geometry" />
        </mxCell>
        <mxCell id="CVqee3alxtFutnKoP7we-153" value="" style="shape=flexArrow;endArrow=classic;html=1;" parent="1" edge="1">
          <mxGeometry width="50" height="50" relative="1" as="geometry">
            <mxPoint x="730" y="1509" as="sourcePoint" />
            <mxPoint x="859" y="1580" as="targetPoint" />
          </mxGeometry>
        </mxCell>
        <mxCell id="CVqee3alxtFutnKoP7we-154" value="&lt;b&gt;&lt;font style=&quot;font-size: 15px&quot;&gt;New Certificate&lt;/font&gt;&lt;/b&gt;" style="edgeLabel;html=1;align=center;verticalAlign=middle;resizable=0;points=[];" parent="CVqee3alxtFutnKoP7we-153" vertex="1" connectable="0">
          <mxGeometry x="-0.1456" y="-1" relative="1" as="geometry">
            <mxPoint as="offset" />
          </mxGeometry>
        </mxCell>
        <mxCell id="CVqee3alxtFutnKoP7we-155" value="&lt;font size=&quot;1&quot;&gt;&lt;b style=&quot;font-size: 27px&quot;&gt;4&lt;/b&gt;&lt;/font&gt;" style="ellipse;whiteSpace=wrap;html=1;aspect=fixed;strokeColor=#000000;fillColor=none;" parent="1" vertex="1">
          <mxGeometry x="793.5" y="1483" width="33" height="33" as="geometry" />
        </mxCell>
        <mxCell id="CVqee3alxtFutnKoP7we-156" value="" style="shape=image;html=1;verticalAlign=top;verticalLabelPosition=bottom;labelBackgroundColor=#ffffff;imageAspect=0;aspect=fixed;image=https://cdn4.iconfinder.com/data/icons/cryptocoins/227/ETH-alt-128.png;strokeColor=#000000;fillColor=#FF0000;" parent="1" vertex="1">
          <mxGeometry x="355" y="1361" width="35" height="35" as="geometry" />
        </mxCell>
        <mxCell id="CVqee3alxtFutnKoP7we-160" value="&lt;b&gt;&lt;font style=&quot;font-size: 14px&quot;&gt;Validated Provider&lt;/font&gt;&lt;/b&gt;" style="outlineConnect=0;fontColor=#232F3E;gradientColor=none;fillColor=#232F3E;strokeColor=none;dashed=0;verticalLabelPosition=bottom;verticalAlign=top;align=center;html=1;fontSize=12;fontStyle=0;aspect=fixed;pointerEvents=1;shape=mxgraph.aws4.user;" parent="1" vertex="1">
          <mxGeometry x="1861" y="275.5" width="78" height="78" as="geometry" />
        </mxCell>
        <mxCell id="CVqee3alxtFutnKoP7we-161" value="&lt;font style=&quot;font-size: 14px&quot;&gt;&lt;b&gt;Anyone&lt;/b&gt;&lt;/font&gt;" style="outlineConnect=0;fontColor=#232F3E;gradientColor=none;fillColor=#232F3E;strokeColor=none;dashed=0;verticalLabelPosition=bottom;verticalAlign=top;align=center;html=1;fontSize=12;fontStyle=0;aspect=fixed;pointerEvents=1;shape=mxgraph.aws4.user;" parent="1" vertex="1">
          <mxGeometry x="1861" y="407" width="78" height="78" as="geometry" />
        </mxCell>
        <mxCell id="CVqee3alxtFutnKoP7we-162" value="" style="aspect=fixed;html=1;points=[];align=center;image;fontSize=12;image=img/lib/mscae/Certificate.svg;fillColor=none;" parent="1" vertex="1">
          <mxGeometry x="2136" y="287" width="50" height="42" as="geometry" />
        </mxCell>
        <mxCell id="CVqee3alxtFutnKoP7we-163" value="&lt;b&gt;&lt;font style=&quot;font-size: 14px&quot;&gt;Public Pool Owners&lt;/font&gt;&lt;/b&gt;" style="outlineConnect=0;dashed=0;verticalLabelPosition=bottom;verticalAlign=top;align=center;html=1;fontSize=12;fontStyle=0;aspect=fixed;pointerEvents=1;shape=mxgraph.aws4.user;strokeColor=#36393d;fillColor=#FF0000;" parent="1" vertex="1">
          <mxGeometry x="1865" y="147.5" width="78" height="78" as="geometry" />
        </mxCell>
        <mxCell id="CVqee3alxtFutnKoP7we-164" value="" style="shape=image;html=1;verticalAlign=top;verticalLabelPosition=bottom;labelBackgroundColor=#ffffff;imageAspect=0;aspect=fixed;image=https://cdn0.iconfinder.com/data/icons/small-n-flat/24/678136-shield-warning-128.png;strokeColor=#000000;fillColor=#000000;" parent="1" vertex="1">
          <mxGeometry x="1905" y="163.5" width="66" height="66" as="geometry" />
        </mxCell>
        <mxCell id="CVqee3alxtFutnKoP7we-167" value="" style="aspect=fixed;html=1;points=[];align=center;image;fontSize=12;image=img/lib/mscae/Key.svg;fillColor=none;" parent="1" vertex="1">
          <mxGeometry x="1918" y="303.5" width="31" height="50" as="geometry" />
        </mxCell>
        <mxCell id="CVqee3alxtFutnKoP7we-168" value="&lt;b&gt;&lt;font style=&quot;font-size: 14px&quot;&gt;New Provider&lt;/font&gt;&lt;/b&gt;" style="outlineConnect=0;fontColor=#232F3E;gradientColor=none;fillColor=#232F3E;strokeColor=none;dashed=0;verticalLabelPosition=bottom;verticalAlign=top;align=center;html=1;fontSize=12;fontStyle=0;aspect=fixed;pointerEvents=1;shape=mxgraph.aws4.user;" parent="1" vertex="1">
          <mxGeometry x="1861" y="9" width="78" height="78" as="geometry" />
        </mxCell>
        <mxCell id="CVqee3alxtFutnKoP7we-169" value="" style="aspect=fixed;html=1;points=[];align=center;image;fontSize=12;image=img/lib/mscae/Key.svg;fillColor=none;" parent="1" vertex="1">
          <mxGeometry x="1918" y="37" width="31" height="50" as="geometry" />
        </mxCell>
        <mxCell id="CVqee3alxtFutnKoP7we-172" value="&lt;font size=&quot;1&quot;&gt;&lt;b style=&quot;font-size: 27px&quot;&gt;1&lt;/b&gt;&lt;/font&gt;" style="ellipse;whiteSpace=wrap;html=1;aspect=fixed;strokeColor=#000000;fillColor=none;" parent="1" vertex="1">
          <mxGeometry x="1818" y="45.5" width="33" height="33" as="geometry" />
        </mxCell>
        <mxCell id="CVqee3alxtFutnKoP7we-173" value="&lt;font size=&quot;1&quot;&gt;&lt;b style=&quot;font-size: 27px&quot;&gt;2&lt;/b&gt;&lt;/font&gt;" style="ellipse;whiteSpace=wrap;html=1;aspect=fixed;strokeColor=#000000;fillColor=none;" parent="1" vertex="1">
          <mxGeometry x="1818" y="173" width="33" height="33" as="geometry" />
        </mxCell>
        <mxCell id="CVqee3alxtFutnKoP7we-174" value="&lt;font size=&quot;1&quot;&gt;&lt;b style=&quot;font-size: 27px&quot;&gt;3&lt;/b&gt;&lt;/font&gt;" style="ellipse;whiteSpace=wrap;html=1;aspect=fixed;strokeColor=#000000;fillColor=none;" parent="1" vertex="1">
          <mxGeometry x="1818" y="302" width="33" height="33" as="geometry" />
        </mxCell>
        <mxCell id="CVqee3alxtFutnKoP7we-178" value="&lt;font size=&quot;1&quot;&gt;&lt;b style=&quot;font-size: 27px&quot;&gt;4&lt;/b&gt;&lt;/font&gt;" style="ellipse;whiteSpace=wrap;html=1;aspect=fixed;strokeColor=#000000;fillColor=none;" parent="1" vertex="1">
          <mxGeometry x="1818" y="437" width="33" height="33" as="geometry" />
        </mxCell>
        <mxCell id="CVqee3alxtFutnKoP7we-180" value="" style="shape=image;html=1;verticalAlign=top;verticalLabelPosition=bottom;labelBackgroundColor=#ffffff;imageAspect=0;aspect=fixed;image=https://cdn4.iconfinder.com/data/icons/cryptocoins/227/ETH-alt-128.png;strokeColor=#000000;fillColor=#FF0000;" parent="1" vertex="1">
          <mxGeometry x="2006" y="30.5" width="35" height="35" as="geometry" />
        </mxCell>
        <mxCell id="CVqee3alxtFutnKoP7we-175" value="" style="html=1;verticalLabelPosition=bottom;align=center;labelBackgroundColor=#ffffff;verticalAlign=top;strokeWidth=2;strokeColor=#0080F0;shadow=0;dashed=0;shape=mxgraph.ios7.icons.eye;fillColor=none;" parent="1" vertex="1">
          <mxGeometry x="1907" y="457" width="51" height="28" as="geometry" />
        </mxCell>
        <mxCell id="CVqee3alxtFutnKoP7we-182" value="" style="shape=flexArrow;endArrow=classic;html=1;exitX=1.065;exitY=0.723;exitDx=0;exitDy=0;exitPerimeter=0;" parent="1" source="CVqee3alxtFutnKoP7we-169" edge="1">
          <mxGeometry width="50" height="50" relative="1" as="geometry">
            <mxPoint x="1370" y="76" as="sourcePoint" />
            <mxPoint x="2282" y="73" as="targetPoint" />
          </mxGeometry>
        </mxCell>
        <mxCell id="CVqee3alxtFutnKoP7we-183" value="&lt;b&gt;&lt;font style=&quot;font-size: 15px&quot;&gt;Access Request&lt;/font&gt;&lt;/b&gt;" style="edgeLabel;html=1;align=center;verticalAlign=middle;resizable=0;points=[];" parent="CVqee3alxtFutnKoP7we-182" vertex="1" connectable="0">
          <mxGeometry x="-0.1456" y="-1" relative="1" as="geometry">
            <mxPoint x="2" y="22" as="offset" />
          </mxGeometry>
        </mxCell>
        <mxCell id="CVqee3alxtFutnKoP7we-184" value="" style="aspect=fixed;html=1;points=[];align=center;image;fontSize=12;image=img/lib/azure2/blockchain/Azure_Blockchain_Service.svg;strokeColor=#000000;fillColor=none;" parent="1" vertex="1">
          <mxGeometry x="2354" y="4" width="512" height="512" as="geometry" />
        </mxCell>
        <mxCell id="CVqee3alxtFutnKoP7we-186" value="" style="shape=flexArrow;endArrow=classic;html=1;exitX=0.978;exitY=0.577;exitDx=0;exitDy=0;exitPerimeter=0;" parent="1" edge="1" source="CVqee3alxtFutnKoP7we-164">
          <mxGeometry width="50" height="50" relative="1" as="geometry">
            <mxPoint x="2005" y="203.15" as="sourcePoint" />
            <mxPoint x="2281" y="202" as="targetPoint" />
          </mxGeometry>
        </mxCell>
        <mxCell id="CVqee3alxtFutnKoP7we-187" value="&lt;b&gt;&lt;font style=&quot;font-size: 15px&quot;&gt;Validate Access Request&lt;/font&gt;&lt;/b&gt;" style="edgeLabel;html=1;align=center;verticalAlign=middle;resizable=0;points=[];" parent="CVqee3alxtFutnKoP7we-186" vertex="1" connectable="0">
          <mxGeometry x="-0.1456" y="-1" relative="1" as="geometry">
            <mxPoint x="2" y="22" as="offset" />
          </mxGeometry>
        </mxCell>
        <mxCell id="CVqee3alxtFutnKoP7we-188" value="" style="shape=flexArrow;endArrow=classic;html=1;exitX=0.989;exitY=0.597;exitDx=0;exitDy=0;exitPerimeter=0;" parent="1" edge="1" source="CVqee3alxtFutnKoP7we-167">
          <mxGeometry width="50" height="50" relative="1" as="geometry">
            <mxPoint x="1993" y="335" as="sourcePoint" />
            <mxPoint x="2286" y="333" as="targetPoint" />
          </mxGeometry>
        </mxCell>
        <mxCell id="CVqee3alxtFutnKoP7we-189" value="&lt;b&gt;&lt;font style=&quot;font-size: 15px&quot;&gt;Issues Certificate&lt;br&gt;for a Holder&lt;br&gt;&lt;/font&gt;&lt;/b&gt;" style="edgeLabel;html=1;align=center;verticalAlign=middle;resizable=0;points=[];" parent="CVqee3alxtFutnKoP7we-188" vertex="1" connectable="0">
          <mxGeometry x="-0.1456" y="-1" relative="1" as="geometry">
            <mxPoint x="2" y="26" as="offset" />
          </mxGeometry>
        </mxCell>
        <mxCell id="CVqee3alxtFutnKoP7we-190" value="" style="shape=flexArrow;endArrow=classic;html=1;" parent="1" edge="1">
          <mxGeometry width="50" height="50" relative="1" as="geometry">
            <mxPoint x="1960" y="460" as="sourcePoint" />
            <mxPoint x="2292.9849999999997" y="459.8499999999999" as="targetPoint" />
          </mxGeometry>
        </mxCell>
        <mxCell id="CVqee3alxtFutnKoP7we-191" value="&lt;b&gt;&lt;font style=&quot;font-size: 15px&quot;&gt;Checks Certificate or&lt;br&gt;Lists all Certificate Hashes for a Holder&lt;br&gt;&lt;/font&gt;&lt;/b&gt;" style="edgeLabel;html=1;align=center;verticalAlign=middle;resizable=0;points=[];" parent="CVqee3alxtFutnKoP7we-190" vertex="1" connectable="0">
          <mxGeometry x="-0.1456" y="-1" relative="1" as="geometry">
            <mxPoint x="2" y="22" as="offset" />
          </mxGeometry>
        </mxCell>
        <mxCell id="CVqee3alxtFutnKoP7we-192" value="" style="shape=image;html=1;verticalAlign=top;verticalLabelPosition=bottom;labelBackgroundColor=#ffffff;imageAspect=0;aspect=fixed;image=https://cdn4.iconfinder.com/data/icons/cryptocoins/227/ETH-alt-128.png;strokeColor=#000000;fillColor=#FF0000;" parent="1" vertex="1">
          <mxGeometry x="2006" y="290.5" width="35" height="35" as="geometry" />
        </mxCell>
        <mxCell id="AW_nQazKGt2BfdjfOGw7-1" value="&lt;b&gt;&lt;font style=&quot;font-size: 14px&quot;&gt;Validated Provider&lt;/font&gt;&lt;/b&gt;" style="outlineConnect=0;fontColor=#232F3E;gradientColor=none;fillColor=#232F3E;strokeColor=none;dashed=0;verticalLabelPosition=bottom;verticalAlign=top;align=center;html=1;fontSize=12;fontStyle=0;aspect=fixed;pointerEvents=1;shape=mxgraph.aws4.user;" vertex="1" parent="1">
          <mxGeometry x="1893" y="1281.5" width="78" height="78" as="geometry" />
        </mxCell>
        <mxCell id="AW_nQazKGt2BfdjfOGw7-2" value="&lt;font style=&quot;font-size: 14px&quot;&gt;&lt;b&gt;Anyone&lt;/b&gt;&lt;/font&gt;" style="outlineConnect=0;fontColor=#232F3E;gradientColor=none;fillColor=#232F3E;strokeColor=none;dashed=0;verticalLabelPosition=bottom;verticalAlign=top;align=center;html=1;fontSize=12;fontStyle=0;aspect=fixed;pointerEvents=1;shape=mxgraph.aws4.user;" vertex="1" parent="1">
          <mxGeometry x="1893" y="1413" width="78" height="78" as="geometry" />
        </mxCell>
        <mxCell id="AW_nQazKGt2BfdjfOGw7-3" value="" style="aspect=fixed;html=1;points=[];align=center;image;fontSize=12;image=img/lib/mscae/Certificate.svg;fillColor=none;" vertex="1" parent="1">
          <mxGeometry x="2168" y="1293" width="50" height="42" as="geometry" />
        </mxCell>
        <mxCell id="AW_nQazKGt2BfdjfOGw7-4" value="&lt;b&gt;&lt;font style=&quot;font-size: 14px&quot;&gt;Private Pool Owners&lt;/font&gt;&lt;/b&gt;" style="outlineConnect=0;dashed=0;verticalLabelPosition=bottom;verticalAlign=top;align=center;html=1;fontSize=12;fontStyle=0;aspect=fixed;pointerEvents=1;shape=mxgraph.aws4.user;strokeColor=#36393d;fillColor=#FF0000;" vertex="1" parent="1">
          <mxGeometry x="1897" y="1153.5" width="78" height="78" as="geometry" />
        </mxCell>
        <mxCell id="AW_nQazKGt2BfdjfOGw7-5" value="" style="shape=image;html=1;verticalAlign=top;verticalLabelPosition=bottom;labelBackgroundColor=#ffffff;imageAspect=0;aspect=fixed;image=https://cdn0.iconfinder.com/data/icons/small-n-flat/24/678136-shield-warning-128.png;strokeColor=#000000;fillColor=#000000;" vertex="1" parent="1">
          <mxGeometry x="1937" y="1169.5" width="66" height="66" as="geometry" />
        </mxCell>
        <mxCell id="AW_nQazKGt2BfdjfOGw7-6" value="" style="aspect=fixed;html=1;points=[];align=center;image;fontSize=12;image=img/lib/mscae/Key.svg;fillColor=none;" vertex="1" parent="1">
          <mxGeometry x="1950" y="1309.5" width="31" height="50" as="geometry" />
        </mxCell>
        <mxCell id="AW_nQazKGt2BfdjfOGw7-7" value="&lt;b&gt;&lt;font style=&quot;font-size: 14px&quot;&gt;Anyone&lt;/font&gt;&lt;/b&gt;" style="outlineConnect=0;fontColor=#232F3E;gradientColor=none;fillColor=#232F3E;strokeColor=none;dashed=0;verticalLabelPosition=bottom;verticalAlign=top;align=center;html=1;fontSize=12;fontStyle=0;aspect=fixed;pointerEvents=1;shape=mxgraph.aws4.user;" vertex="1" parent="1">
          <mxGeometry x="1893" y="1015" width="78" height="78" as="geometry" />
        </mxCell>
        <mxCell id="AW_nQazKGt2BfdjfOGw7-9" value="&lt;font size=&quot;1&quot;&gt;&lt;b style=&quot;font-size: 27px&quot;&gt;1&lt;/b&gt;&lt;/font&gt;" style="ellipse;whiteSpace=wrap;html=1;aspect=fixed;strokeColor=#000000;fillColor=none;" vertex="1" parent="1">
          <mxGeometry x="1850" y="1051.5" width="33" height="33" as="geometry" />
        </mxCell>
        <mxCell id="AW_nQazKGt2BfdjfOGw7-10" value="&lt;font size=&quot;1&quot;&gt;&lt;b style=&quot;font-size: 27px&quot;&gt;2&lt;/b&gt;&lt;/font&gt;" style="ellipse;whiteSpace=wrap;html=1;aspect=fixed;strokeColor=#000000;fillColor=none;" vertex="1" parent="1">
          <mxGeometry x="1850" y="1179" width="33" height="33" as="geometry" />
        </mxCell>
        <mxCell id="AW_nQazKGt2BfdjfOGw7-11" value="&lt;font size=&quot;1&quot;&gt;&lt;b style=&quot;font-size: 27px&quot;&gt;3&lt;/b&gt;&lt;/font&gt;" style="ellipse;whiteSpace=wrap;html=1;aspect=fixed;strokeColor=#000000;fillColor=none;" vertex="1" parent="1">
          <mxGeometry x="1850" y="1308" width="33" height="33" as="geometry" />
        </mxCell>
        <mxCell id="AW_nQazKGt2BfdjfOGw7-12" value="&lt;font size=&quot;1&quot;&gt;&lt;b style=&quot;font-size: 27px&quot;&gt;4&lt;/b&gt;&lt;/font&gt;" style="ellipse;whiteSpace=wrap;html=1;aspect=fixed;strokeColor=#000000;fillColor=none;" vertex="1" parent="1">
          <mxGeometry x="1850" y="1443" width="33" height="33" as="geometry" />
        </mxCell>
        <mxCell id="AW_nQazKGt2BfdjfOGw7-13" value="" style="shape=image;html=1;verticalAlign=top;verticalLabelPosition=bottom;labelBackgroundColor=#ffffff;imageAspect=0;aspect=fixed;image=https://cdn4.iconfinder.com/data/icons/cryptocoins/227/ETH-alt-128.png;strokeColor=#000000;fillColor=#FF0000;" vertex="1" parent="1">
          <mxGeometry x="2038" y="1036.5" width="35" height="35" as="geometry" />
        </mxCell>
        <mxCell id="AW_nQazKGt2BfdjfOGw7-14" value="" style="html=1;verticalLabelPosition=bottom;align=center;labelBackgroundColor=#ffffff;verticalAlign=top;strokeWidth=2;strokeColor=#0080F0;shadow=0;dashed=0;shape=mxgraph.ios7.icons.eye;fillColor=none;" vertex="1" parent="1">
          <mxGeometry x="1939" y="1463" width="51" height="28" as="geometry" />
        </mxCell>
        <mxCell id="AW_nQazKGt2BfdjfOGw7-15" value="" style="shape=flexArrow;endArrow=classic;html=1;exitX=1.065;exitY=0.723;exitDx=0;exitDy=0;exitPerimeter=0;" edge="1" parent="1">
          <mxGeometry width="50" height="50" relative="1" as="geometry">
            <mxPoint x="1983.0149999999999" y="1079.1499999999999" as="sourcePoint" />
            <mxPoint x="2314" y="1082" as="targetPoint" />
          </mxGeometry>
        </mxCell>
        <mxCell id="AW_nQazKGt2BfdjfOGw7-16" value="&lt;b&gt;&lt;font style=&quot;font-size: 15px&quot;&gt;Creates a Private Certificate Pool&lt;/font&gt;&lt;/b&gt;" style="edgeLabel;html=1;align=center;verticalAlign=middle;resizable=0;points=[];" vertex="1" connectable="0" parent="AW_nQazKGt2BfdjfOGw7-15">
          <mxGeometry x="-0.1456" y="-1" relative="1" as="geometry">
            <mxPoint x="2" y="22" as="offset" />
          </mxGeometry>
        </mxCell>
        <mxCell id="AW_nQazKGt2BfdjfOGw7-17" value="" style="aspect=fixed;html=1;points=[];align=center;image;fontSize=12;image=img/lib/azure2/blockchain/Azure_Blockchain_Service.svg;strokeColor=#000000;fillColor=none;" vertex="1" parent="1">
          <mxGeometry x="2386" y="1010" width="512" height="512" as="geometry" />
        </mxCell>
        <mxCell id="AW_nQazKGt2BfdjfOGw7-18" value="" style="shape=flexArrow;endArrow=classic;html=1;exitX=0.978;exitY=0.577;exitDx=0;exitDy=0;exitPerimeter=0;" edge="1" parent="1" source="AW_nQazKGt2BfdjfOGw7-5">
          <mxGeometry width="50" height="50" relative="1" as="geometry">
            <mxPoint x="2037" y="1209.15" as="sourcePoint" />
            <mxPoint x="2313" y="1208" as="targetPoint" />
          </mxGeometry>
        </mxCell>
        <mxCell id="AW_nQazKGt2BfdjfOGw7-19" value="&lt;b&gt;&lt;font style=&quot;font-size: 15px&quot;&gt;Add Providers to the Private Pool&lt;/font&gt;&lt;/b&gt;" style="edgeLabel;html=1;align=center;verticalAlign=middle;resizable=0;points=[];" vertex="1" connectable="0" parent="AW_nQazKGt2BfdjfOGw7-18">
          <mxGeometry x="-0.1456" y="-1" relative="1" as="geometry">
            <mxPoint x="2" y="22" as="offset" />
          </mxGeometry>
        </mxCell>
        <mxCell id="AW_nQazKGt2BfdjfOGw7-20" value="" style="shape=flexArrow;endArrow=classic;html=1;exitX=0.989;exitY=0.597;exitDx=0;exitDy=0;exitPerimeter=0;" edge="1" parent="1" source="AW_nQazKGt2BfdjfOGw7-6">
          <mxGeometry width="50" height="50" relative="1" as="geometry">
            <mxPoint x="2025" y="1341" as="sourcePoint" />
            <mxPoint x="2318" y="1339" as="targetPoint" />
          </mxGeometry>
        </mxCell>
        <mxCell id="AW_nQazKGt2BfdjfOGw7-21" value="&lt;b&gt;&lt;font style=&quot;font-size: 15px&quot;&gt;Issues Certificate&lt;br&gt;for a Holder&lt;br&gt;&lt;/font&gt;&lt;/b&gt;" style="edgeLabel;html=1;align=center;verticalAlign=middle;resizable=0;points=[];" vertex="1" connectable="0" parent="AW_nQazKGt2BfdjfOGw7-20">
          <mxGeometry x="-0.1456" y="-1" relative="1" as="geometry">
            <mxPoint x="2" y="26" as="offset" />
          </mxGeometry>
        </mxCell>
        <mxCell id="AW_nQazKGt2BfdjfOGw7-22" value="" style="shape=flexArrow;endArrow=classic;html=1;" edge="1" parent="1">
          <mxGeometry width="50" height="50" relative="1" as="geometry">
            <mxPoint x="1992" y="1466" as="sourcePoint" />
            <mxPoint x="2324.9849999999997" y="1465.85" as="targetPoint" />
          </mxGeometry>
        </mxCell>
        <mxCell id="AW_nQazKGt2BfdjfOGw7-23" value="&lt;b&gt;&lt;font style=&quot;font-size: 15px&quot;&gt;Checks Certificate or&lt;br&gt;Lists all Certificate Hashes for a Holder&lt;br&gt;&lt;/font&gt;&lt;/b&gt;" style="edgeLabel;html=1;align=center;verticalAlign=middle;resizable=0;points=[];" vertex="1" connectable="0" parent="AW_nQazKGt2BfdjfOGw7-22">
          <mxGeometry x="-0.1456" y="-1" relative="1" as="geometry">
            <mxPoint x="2" y="22" as="offset" />
          </mxGeometry>
        </mxCell>
        <mxCell id="AW_nQazKGt2BfdjfOGw7-27" value="" style="aspect=fixed;html=1;points=[];align=center;image;fontSize=12;image=img/lib/mscae/Certificate.svg;fillColor=none;" vertex="1" parent="1">
          <mxGeometry x="2183" y="2284" width="50" height="42" as="geometry" />
        </mxCell>
        <mxCell id="AW_nQazKGt2BfdjfOGw7-28" value="&lt;b&gt;&lt;font style=&quot;font-size: 14px&quot;&gt;Provider Owners&lt;/font&gt;&lt;/b&gt;" style="outlineConnect=0;dashed=0;verticalLabelPosition=bottom;verticalAlign=top;align=center;html=1;fontSize=12;fontStyle=0;aspect=fixed;pointerEvents=1;shape=mxgraph.aws4.user;strokeColor=#36393d;fillColor=#FF0000;" vertex="1" parent="1">
          <mxGeometry x="1912" y="2144.5" width="78" height="78" as="geometry" />
        </mxCell>
        <mxCell id="AW_nQazKGt2BfdjfOGw7-29" value="" style="shape=image;html=1;verticalAlign=top;verticalLabelPosition=bottom;labelBackgroundColor=#ffffff;imageAspect=0;aspect=fixed;image=https://cdn0.iconfinder.com/data/icons/small-n-flat/24/678136-shield-warning-128.png;strokeColor=#000000;fillColor=#000000;" vertex="1" parent="1">
          <mxGeometry x="1952" y="2160.5" width="66" height="66" as="geometry" />
        </mxCell>
        <mxCell id="AW_nQazKGt2BfdjfOGw7-31" value="&lt;b&gt;&lt;font style=&quot;font-size: 14px&quot;&gt;Anyone&lt;/font&gt;&lt;/b&gt;" style="outlineConnect=0;fontColor=#232F3E;gradientColor=none;fillColor=#232F3E;strokeColor=none;dashed=0;verticalLabelPosition=bottom;verticalAlign=top;align=center;html=1;fontSize=12;fontStyle=0;aspect=fixed;pointerEvents=1;shape=mxgraph.aws4.user;" vertex="1" parent="1">
          <mxGeometry x="1908" y="2006" width="78" height="78" as="geometry" />
        </mxCell>
        <mxCell id="AW_nQazKGt2BfdjfOGw7-32" value="&lt;font size=&quot;1&quot;&gt;&lt;b style=&quot;font-size: 27px&quot;&gt;1&lt;/b&gt;&lt;/font&gt;" style="ellipse;whiteSpace=wrap;html=1;aspect=fixed;strokeColor=#000000;fillColor=none;" vertex="1" parent="1">
          <mxGeometry x="1865" y="2042.5" width="33" height="33" as="geometry" />
        </mxCell>
        <mxCell id="AW_nQazKGt2BfdjfOGw7-33" value="&lt;font size=&quot;1&quot;&gt;&lt;b style=&quot;font-size: 27px&quot;&gt;2&lt;/b&gt;&lt;/font&gt;" style="ellipse;whiteSpace=wrap;html=1;aspect=fixed;strokeColor=#000000;fillColor=none;" vertex="1" parent="1">
          <mxGeometry x="1865" y="2170" width="33" height="33" as="geometry" />
        </mxCell>
        <mxCell id="AW_nQazKGt2BfdjfOGw7-34" value="&lt;font size=&quot;1&quot;&gt;&lt;b style=&quot;font-size: 27px&quot;&gt;3&lt;/b&gt;&lt;/font&gt;" style="ellipse;whiteSpace=wrap;html=1;aspect=fixed;strokeColor=#000000;fillColor=none;" vertex="1" parent="1">
          <mxGeometry x="1865" y="2299" width="33" height="33" as="geometry" />
        </mxCell>
        <mxCell id="AW_nQazKGt2BfdjfOGw7-36" value="" style="shape=image;html=1;verticalAlign=top;verticalLabelPosition=bottom;labelBackgroundColor=#ffffff;imageAspect=0;aspect=fixed;image=https://cdn4.iconfinder.com/data/icons/cryptocoins/227/ETH-alt-128.png;strokeColor=#000000;fillColor=#FF0000;" vertex="1" parent="1">
          <mxGeometry x="2053" y="2027.5" width="35" height="35" as="geometry" />
        </mxCell>
        <mxCell id="AW_nQazKGt2BfdjfOGw7-38" value="" style="shape=flexArrow;endArrow=classic;html=1;exitX=1.065;exitY=0.723;exitDx=0;exitDy=0;exitPerimeter=0;" edge="1" parent="1">
          <mxGeometry width="50" height="50" relative="1" as="geometry">
            <mxPoint x="1998.0149999999999" y="2070.1499999999996" as="sourcePoint" />
            <mxPoint x="2329" y="2073" as="targetPoint" />
          </mxGeometry>
        </mxCell>
        <mxCell id="AW_nQazKGt2BfdjfOGw7-39" value="&lt;b&gt;&lt;font style=&quot;font-size: 15px&quot;&gt;Creates a MultiSig Provider&lt;/font&gt;&lt;/b&gt;" style="edgeLabel;html=1;align=center;verticalAlign=middle;resizable=0;points=[];" vertex="1" connectable="0" parent="AW_nQazKGt2BfdjfOGw7-38">
          <mxGeometry x="-0.1456" y="-1" relative="1" as="geometry">
            <mxPoint x="2" y="22" as="offset" />
          </mxGeometry>
        </mxCell>
        <mxCell id="AW_nQazKGt2BfdjfOGw7-40" value="" style="aspect=fixed;html=1;points=[];align=center;image;fontSize=12;image=img/lib/azure2/blockchain/Azure_Blockchain_Service.svg;strokeColor=#000000;fillColor=none;" vertex="1" parent="1">
          <mxGeometry x="2401" y="1956" width="512" height="512" as="geometry" />
        </mxCell>
        <mxCell id="AW_nQazKGt2BfdjfOGw7-41" value="" style="shape=flexArrow;endArrow=classic;html=1;exitX=0.978;exitY=0.577;exitDx=0;exitDy=0;exitPerimeter=0;" edge="1" parent="1" source="AW_nQazKGt2BfdjfOGw7-29">
          <mxGeometry width="50" height="50" relative="1" as="geometry">
            <mxPoint x="2052" y="2200.15" as="sourcePoint" />
            <mxPoint x="2328" y="2199" as="targetPoint" />
          </mxGeometry>
        </mxCell>
        <mxCell id="AW_nQazKGt2BfdjfOGw7-42" value="&lt;b&gt;&lt;font style=&quot;font-size: 15px&quot;&gt;Add Pools to the Provider&lt;/font&gt;&lt;/b&gt;" style="edgeLabel;html=1;align=center;verticalAlign=middle;resizable=0;points=[];" vertex="1" connectable="0" parent="AW_nQazKGt2BfdjfOGw7-41">
          <mxGeometry x="-0.1456" y="-1" relative="1" as="geometry">
            <mxPoint x="2" y="22" as="offset" />
          </mxGeometry>
        </mxCell>
        <mxCell id="AW_nQazKGt2BfdjfOGw7-43" value="" style="shape=flexArrow;endArrow=classic;html=1;exitX=1;exitY=0.5;exitDx=0;exitDy=0;" edge="1" parent="1" source="AW_nQazKGt2BfdjfOGw7-49">
          <mxGeometry width="50" height="50" relative="1" as="geometry">
            <mxPoint x="1995.659" y="2330.35" as="sourcePoint" />
            <mxPoint x="2333" y="2330" as="targetPoint" />
          </mxGeometry>
        </mxCell>
        <mxCell id="AW_nQazKGt2BfdjfOGw7-44" value="&lt;b&gt;&lt;font style=&quot;font-size: 15px&quot;&gt;Issues Certificate&lt;br&gt;for a Holder in a specific Pool&lt;br&gt;via the Provider&lt;br&gt;&lt;/font&gt;&lt;/b&gt;" style="edgeLabel;html=1;align=center;verticalAlign=middle;resizable=0;points=[];" vertex="1" connectable="0" parent="AW_nQazKGt2BfdjfOGw7-43">
          <mxGeometry x="-0.1456" y="-1" relative="1" as="geometry">
            <mxPoint x="3" y="35" as="offset" />
          </mxGeometry>
        </mxCell>
        <mxCell id="AW_nQazKGt2BfdjfOGw7-48" value="&lt;b&gt;&lt;font style=&quot;font-size: 14px&quot;&gt;Provider Owners&lt;/font&gt;&lt;/b&gt;" style="outlineConnect=0;dashed=0;verticalLabelPosition=bottom;verticalAlign=top;align=center;html=1;fontSize=12;fontStyle=0;aspect=fixed;pointerEvents=1;shape=mxgraph.aws4.user;strokeColor=#36393d;fillColor=#FF0000;" vertex="1" parent="1">
          <mxGeometry x="1905" y="2282" width="78" height="78" as="geometry" />
        </mxCell>
        <mxCell id="AW_nQazKGt2BfdjfOGw7-49" value="" style="shape=image;html=1;verticalAlign=top;verticalLabelPosition=bottom;labelBackgroundColor=#ffffff;imageAspect=0;aspect=fixed;image=https://cdn0.iconfinder.com/data/icons/small-n-flat/24/678136-shield-warning-128.png;strokeColor=#000000;fillColor=#000000;" vertex="1" parent="1">
          <mxGeometry x="1945" y="2298" width="66" height="66" as="geometry" />
        </mxCell>
        <mxCell id="AW_nQazKGt2BfdjfOGw7-51" value="&lt;b&gt;&lt;font style=&quot;font-size: 14px&quot;&gt;Token Owner&lt;/font&gt;&lt;/b&gt;" style="outlineConnect=0;dashed=0;verticalLabelPosition=bottom;verticalAlign=top;align=center;html=1;fontSize=12;fontStyle=0;aspect=fixed;pointerEvents=1;shape=mxgraph.aws4.user;strokeColor=#001DBC;fillColor=#0050ef;fontColor=#000000;" vertex="1" parent="1">
          <mxGeometry x="1944" y="3144.5" width="78" height="78" as="geometry" />
        </mxCell>
        <mxCell id="AW_nQazKGt2BfdjfOGw7-54" value="&lt;font size=&quot;1&quot;&gt;&lt;b style=&quot;font-size: 27px&quot;&gt;1&lt;/b&gt;&lt;/font&gt;" style="ellipse;whiteSpace=wrap;html=1;aspect=fixed;strokeColor=#000000;fillColor=none;" vertex="1" parent="1">
          <mxGeometry x="1893" y="2986" width="33" height="33" as="geometry" />
        </mxCell>
        <mxCell id="AW_nQazKGt2BfdjfOGw7-55" value="&lt;font size=&quot;1&quot;&gt;&lt;b style=&quot;font-size: 27px&quot;&gt;2&lt;/b&gt;&lt;/font&gt;" style="ellipse;whiteSpace=wrap;html=1;aspect=fixed;strokeColor=#000000;fillColor=none;" vertex="1" parent="1">
          <mxGeometry x="1897" y="3170" width="33" height="33" as="geometry" />
        </mxCell>
        <mxCell id="AW_nQazKGt2BfdjfOGw7-58" value="" style="shape=flexArrow;endArrow=classic;html=1;exitX=1.065;exitY=0.723;exitDx=0;exitDy=0;exitPerimeter=0;" edge="1" parent="1">
          <mxGeometry width="50" height="50" relative="1" as="geometry">
            <mxPoint x="2033.2549999999994" y="3019.1499999999996" as="sourcePoint" />
            <mxPoint x="2364.24" y="3019" as="targetPoint" />
          </mxGeometry>
        </mxCell>
        <mxCell id="AW_nQazKGt2BfdjfOGw7-59" value="&lt;b&gt;&lt;font style=&quot;font-size: 15px&quot;&gt;Submits a change proposition&lt;br&gt;(code, prices, ...)&lt;br&gt;&lt;/font&gt;&lt;/b&gt;" style="edgeLabel;html=1;align=center;verticalAlign=middle;resizable=0;points=[];" vertex="1" connectable="0" parent="AW_nQazKGt2BfdjfOGw7-58">
          <mxGeometry x="-0.1456" y="-1" relative="1" as="geometry">
            <mxPoint x="2" y="22" as="offset" />
          </mxGeometry>
        </mxCell>
        <mxCell id="AW_nQazKGt2BfdjfOGw7-60" value="" style="aspect=fixed;html=1;points=[];align=center;image;fontSize=12;image=img/lib/azure2/blockchain/Azure_Blockchain_Service.svg;strokeColor=#000000;fillColor=none;" vertex="1" parent="1">
          <mxGeometry x="2394" y="2935" width="342" height="342" as="geometry" />
        </mxCell>
        <mxCell id="AW_nQazKGt2BfdjfOGw7-61" value="" style="shape=flexArrow;endArrow=classic;html=1;" edge="1" parent="1">
          <mxGeometry width="50" height="50" relative="1" as="geometry">
            <mxPoint x="2034" y="3199" as="sourcePoint" />
            <mxPoint x="2360" y="3199" as="targetPoint" />
          </mxGeometry>
        </mxCell>
        <mxCell id="AW_nQazKGt2BfdjfOGw7-62" value="&lt;b&gt;&lt;font style=&quot;font-size: 15px&quot;&gt;Vote on the proposition&lt;/font&gt;&lt;/b&gt;" style="edgeLabel;html=1;align=center;verticalAlign=middle;resizable=0;points=[];" vertex="1" connectable="0" parent="AW_nQazKGt2BfdjfOGw7-61">
          <mxGeometry x="-0.1456" y="-1" relative="1" as="geometry">
            <mxPoint x="2" y="22" as="offset" />
          </mxGeometry>
        </mxCell>
        <mxCell id="AW_nQazKGt2BfdjfOGw7-67" value="" style="shape=image;html=1;verticalAlign=top;verticalLabelPosition=bottom;labelBackgroundColor=#ffffff;imageAspect=0;aspect=fixed;image=https://cdn3.iconfinder.com/data/icons/currency-and-cryptocurrency-signs/64/cryptocurrency_blockchain_Ethereum_ETH-128.png" vertex="1" parent="1">
          <mxGeometry x="1986.75" y="3176" width="46.5" height="46.5" as="geometry" />
        </mxCell>
        <mxCell id="AW_nQazKGt2BfdjfOGw7-69" value="&lt;b&gt;&lt;font style=&quot;font-size: 14px&quot;&gt;Token Owner&lt;/font&gt;&lt;/b&gt;" style="outlineConnect=0;dashed=0;verticalLabelPosition=bottom;verticalAlign=top;align=center;html=1;fontSize=12;fontStyle=0;aspect=fixed;pointerEvents=1;shape=mxgraph.aws4.user;strokeColor=#001DBC;fillColor=#0050ef;fontColor=#000000;" vertex="1" parent="1">
          <mxGeometry x="1940.38" y="3015" width="78" height="78" as="geometry" />
        </mxCell>
        <mxCell id="AW_nQazKGt2BfdjfOGw7-70" value="" style="shape=image;html=1;verticalAlign=top;verticalLabelPosition=bottom;labelBackgroundColor=#ffffff;imageAspect=0;aspect=fixed;image=https://cdn3.iconfinder.com/data/icons/currency-and-cryptocurrency-signs/64/cryptocurrency_blockchain_Ethereum_ETH-128.png" vertex="1" parent="1">
          <mxGeometry x="1983.13" y="3046.5" width="46.5" height="46.5" as="geometry" />
        </mxCell>
        <mxCell id="AW_nQazKGt2BfdjfOGw7-71" value="&lt;b&gt;&lt;font style=&quot;font-size: 14px&quot;&gt;Token Owner&lt;/font&gt;&lt;/b&gt;" style="outlineConnect=0;dashed=0;verticalLabelPosition=bottom;verticalAlign=top;align=center;html=1;fontSize=12;fontStyle=0;aspect=fixed;pointerEvents=1;shape=mxgraph.aws4.user;strokeColor=#001DBC;fillColor=#0050ef;fontColor=#000000;" vertex="1" parent="1">
          <mxGeometry x="1959" y="3716.5" width="78" height="78" as="geometry" />
        </mxCell>
        <mxCell id="AW_nQazKGt2BfdjfOGw7-72" value="&lt;font size=&quot;1&quot;&gt;&lt;b style=&quot;font-size: 27px&quot;&gt;1&lt;/b&gt;&lt;/font&gt;" style="ellipse;whiteSpace=wrap;html=1;aspect=fixed;strokeColor=#000000;fillColor=none;" vertex="1" parent="1">
          <mxGeometry x="1912" y="3614.5" width="33" height="33" as="geometry" />
        </mxCell>
        <mxCell id="AW_nQazKGt2BfdjfOGw7-73" value="&lt;font size=&quot;1&quot;&gt;&lt;b style=&quot;font-size: 27px&quot;&gt;2&lt;/b&gt;&lt;/font&gt;" style="ellipse;whiteSpace=wrap;html=1;aspect=fixed;strokeColor=#000000;fillColor=none;" vertex="1" parent="1">
          <mxGeometry x="1912" y="3742" width="33" height="33" as="geometry" />
        </mxCell>
        <mxCell id="AW_nQazKGt2BfdjfOGw7-74" value="" style="shape=flexArrow;endArrow=classic;html=1;exitX=1.065;exitY=0.723;exitDx=0;exitDy=0;exitPerimeter=0;" edge="1" parent="1">
          <mxGeometry width="50" height="50" relative="1" as="geometry">
            <mxPoint x="2045.0149999999994" y="3642.1499999999996" as="sourcePoint" />
            <mxPoint x="2376" y="3642" as="targetPoint" />
          </mxGeometry>
        </mxCell>
        <mxCell id="AW_nQazKGt2BfdjfOGw7-75" value="&lt;b&gt;&lt;font style=&quot;font-size: 15px&quot;&gt;Assigns dividends to himself&lt;/font&gt;&lt;/b&gt;" style="edgeLabel;html=1;align=center;verticalAlign=middle;resizable=0;points=[];" vertex="1" connectable="0" parent="AW_nQazKGt2BfdjfOGw7-74">
          <mxGeometry x="-0.1456" y="-1" relative="1" as="geometry">
            <mxPoint x="2" y="22" as="offset" />
          </mxGeometry>
        </mxCell>
        <mxCell id="AW_nQazKGt2BfdjfOGw7-76" value="" style="aspect=fixed;html=1;points=[];align=center;image;fontSize=12;image=img/lib/azure2/blockchain/Azure_Blockchain_Service.svg;strokeColor=#000000;fillColor=none;" vertex="1" parent="1">
          <mxGeometry x="2422" y="3538" width="342" height="342" as="geometry" />
        </mxCell>
        <mxCell id="AW_nQazKGt2BfdjfOGw7-77" value="" style="shape=flexArrow;endArrow=classic;html=1;" edge="1" parent="1">
          <mxGeometry width="50" height="50" relative="1" as="geometry">
            <mxPoint x="2049" y="3771" as="sourcePoint" />
            <mxPoint x="2375" y="3771" as="targetPoint" />
          </mxGeometry>
        </mxCell>
        <mxCell id="AW_nQazKGt2BfdjfOGw7-78" value="&lt;b&gt;&lt;font style=&quot;font-size: 15px&quot;&gt;Withdraw the dividends&lt;/font&gt;&lt;/b&gt;" style="edgeLabel;html=1;align=center;verticalAlign=middle;resizable=0;points=[];" vertex="1" connectable="0" parent="AW_nQazKGt2BfdjfOGw7-77">
          <mxGeometry x="-0.1456" y="-1" relative="1" as="geometry">
            <mxPoint x="2" y="22" as="offset" />
          </mxGeometry>
        </mxCell>
        <mxCell id="AW_nQazKGt2BfdjfOGw7-79" value="" style="shape=image;html=1;verticalAlign=top;verticalLabelPosition=bottom;labelBackgroundColor=#ffffff;imageAspect=0;aspect=fixed;image=https://cdn3.iconfinder.com/data/icons/currency-and-cryptocurrency-signs/64/cryptocurrency_blockchain_Ethereum_ETH-128.png" vertex="1" parent="1">
          <mxGeometry x="2001.75" y="3748" width="46.5" height="46.5" as="geometry" />
        </mxCell>
        <mxCell id="AW_nQazKGt2BfdjfOGw7-80" value="&lt;b&gt;&lt;font style=&quot;font-size: 14px&quot;&gt;Token Owner&lt;/font&gt;&lt;/b&gt;" style="outlineConnect=0;dashed=0;verticalLabelPosition=bottom;verticalAlign=top;align=center;html=1;fontSize=12;fontStyle=0;aspect=fixed;pointerEvents=1;shape=mxgraph.aws4.user;strokeColor=#001DBC;fillColor=#0050ef;fontColor=#000000;" vertex="1" parent="1">
          <mxGeometry x="1955.38" y="3587" width="78" height="78" as="geometry" />
        </mxCell>
        <mxCell id="AW_nQazKGt2BfdjfOGw7-81" value="" style="shape=image;html=1;verticalAlign=top;verticalLabelPosition=bottom;labelBackgroundColor=#ffffff;imageAspect=0;aspect=fixed;image=https://cdn3.iconfinder.com/data/icons/currency-and-cryptocurrency-signs/64/cryptocurrency_blockchain_Ethereum_ETH-128.png" vertex="1" parent="1">
          <mxGeometry x="1998.13" y="3618.5" width="46.5" height="46.5" as="geometry" />
        </mxCell>
        <mxCell id="AW_nQazKGt2BfdjfOGw7-82" value="&lt;b&gt;&lt;font style=&quot;font-size: 14px&quot;&gt;Chairperson&lt;/font&gt;&lt;/b&gt;" style="outlineConnect=0;fontColor=#000000;fillColor=#008a00;strokeColor=#005700;dashed=0;verticalLabelPosition=bottom;verticalAlign=top;align=center;html=1;fontSize=12;fontStyle=0;aspect=fixed;pointerEvents=1;shape=mxgraph.aws4.user;" vertex="1" parent="1">
          <mxGeometry x="1943" y="2904" width="78" height="78" as="geometry" />
        </mxCell>
        <mxCell id="AW_nQazKGt2BfdjfOGw7-83" value="" style="shape=image;html=1;verticalAlign=top;verticalLabelPosition=bottom;labelBackgroundColor=#ffffff;imageAspect=0;aspect=fixed;image=https://cdn4.iconfinder.com/data/icons/general-office/91/General_Office_51-128.png;fontColor=#000000;" vertex="1" parent="1">
          <mxGeometry x="1984" y="2932" width="54" height="54" as="geometry" />
        </mxCell>
        <mxCell id="AW_nQazKGt2BfdjfOGw7-84" value="" style="shape=flexArrow;endArrow=classic;html=1;" edge="1" parent="1">
          <mxGeometry width="50" height="50" relative="1" as="geometry">
            <mxPoint x="2374" y="3816" as="sourcePoint" />
            <mxPoint x="2050" y="3816" as="targetPoint" />
          </mxGeometry>
        </mxCell>
        <mxCell id="AW_nQazKGt2BfdjfOGw7-86" value="" style="shape=image;html=1;verticalAlign=top;verticalLabelPosition=bottom;labelBackgroundColor=#ffffff;imageAspect=0;aspect=fixed;image=https://cdn4.iconfinder.com/data/icons/cryptocoins/227/ETH-alt-128.png;strokeColor=#000000;fillColor=#FF0000;" vertex="1" parent="1">
          <mxGeometry x="2311" y="3828" width="35" height="35" as="geometry" />
        </mxCell>
      </root>
    </mxGraphModel>
  </diagram>
</mxfile>
